<svg width="723" height="714" viewBox="0 0 723 714" fill="none" xmlns="http://www.w3.org/2000/svg">
<path fill-rule="evenodd" clip-rule="evenodd" d="M373.941 55.5979C439.9 51.0672 504.862 12.1576 566.456 36.1879C634.951 62.911 697.269 118.853 717.356 189.579C737.241 259.594 693.61 328.538 668.934 397.011C645.179 462.931 625.347 529.771 576.617 580.121C520.44 638.167 454.571 696.921 373.941 701.817C291.648 706.814 212.167 662.826 152.556 605.872C97.5312 553.301 76.2887 477.391 61.0112 402.839C47.246 335.666 44.0598 265.889 69.8672 202.362C94.5179 141.683 140.744 89.8476 199.728 61.3783C253.367 35.4887 314.52 59.6795 373.941 55.5979Z" fill="#F0CCB1"/>
<path fill-rule="evenodd" clip-rule="evenodd" d="M342.568 29.7131C412.229 24.9281 480.837 -16.165 545.886 9.2138C618.226 37.4366 684.04 96.5176 705.255 171.213C726.256 245.157 680.176 317.97 654.116 390.286C629.027 459.905 608.082 530.495 556.617 583.672C497.288 644.975 427.723 707.026 342.568 712.197C255.657 717.474 171.715 671.017 108.759 610.868C50.6468 555.346 28.2122 475.176 12.0774 396.44C-2.46033 325.498 -5.82531 251.805 21.4303 184.714C47.4643 120.629 96.2842 65.8848 158.578 35.8178C215.228 8.47535 279.813 34.0237 342.568 29.7131Z" stroke="#FB3B00" stroke-width="2"/>
</svg>
